# AST/ASF file generated using VICON BodyLanguage
# -----------------------------------------------
:version 1.10
:name VICON
:units
  mass 1.0
  length 0.45
  angle deg
:documentation
   .ast/.asf automatically generated from VICON data using
   VICON BodyBuilder and BodyLanguage model FoxedUp or BRILLIANT.MOD
:root
   order TX TY TZ RX RY RZ
   axis XYZ
   position 0 0 0  
   orientation 0 0 0 
:bonedata
  begin
     id 1 
     name lhipjoint
     direction 0.650112 -0.723553 0.232005 
     length 2.45805 
     axis 0 0 0  XYZ
  end
  begin
     id 2 
     name lfemur
     direction 0.34202 -0.939693 0  
     length 7.00073  
     axis 0 0 20  XYZ
    dof rx ry rz
    limits (-160.0 20.0)
           (-70.0 70.0)
           (-60.0 70.0)
  end
  begin
     id 3 
     name ltibia
     direction 0.34202 -0.939693 0   
     length 7.8748   
     axis 0 0 20   XYZ
    dof rx
    limits (-10.0 170.0)
  end
  begin
     id 4 
     name lfoot
     direction 0.0542825 -0.14914 0.987325   
     length 1.75978   
     axis -90 7.62852e-016 20   XYZ
    dof rx rz
    limits (-45.0 90.0)
           (-70.0 20.0)
  end
  begin
     id 5 
     name ltoes
     direction 1.53509e-011 -4.21906e-011 1   
     length 0.893912   
     axis -90 7.62852e-016 20   XYZ
    dof rx
    limits (-90.0 20.0)
  end
  begin
     id 6 
     name rhipjoint
     direction -0.637897 -0.733345 0.235145   
     length 2.42522  
     axis 0 0 0  XYZ 
  end
  begin
     id 7 
     name rfemur
     direction -0.34202 -0.939693 0   
     length 7.02549   
     axis 0 0 -20   XYZ
    dof rx ry rz
    limits (-160.0 20.0)
           (-70.0 70.0)
           (-70.0 60.0)
  end
  begin
     id 8 
     name rtibia
     direction -0.34202 -0.939693 0   
     length 7.71512   
     axis 0 0 -20   XYZ
    dof rx
    limits (-10.0 170.0)
 end
 begin
     id 9 
     name rfoot
     direction -0.0822618 -0.226012 0.970645   
     length 1.90014  
     axis -90 -7.62852e-016 -20   XYZ
    dof rx rz
    limits (-45.0 90.0)
           (-20.0 70.0)
  end
  begin
     id 10 
     name rtoes
     direction -1.53542e-011 -4.21872e-011 1   
     length 0.957341   
     axis -90 -7.62852e-016 -20   XYZ
    dof rx
    limits (-90.0 20.0)
  end
  begin
     id 11 
     name lowerback
     direction -0.0022947 0.999774 -0.0211557   
     length 1.89909   
     axis 0 0 0   XYZ
    dof rx ry rz
    limits (-20.0 45.0)
           (-30.0 30.0)
           (-30.0 30.0)
  end
  begin
     id 12 
     name upperback
     direction 0.0107737 0.998635 0.0511027   
     length 1.8853   
     axis 0 0 0   XYZ
    dof rx ry rz
    limits (-20.0 45.0)
           (-30.0 30.0)
           (-30.0 30.0)
  end
  begin
     id 13 
     name thorax
     direction 0.011824 0.998136 0.0598754   
     length 1.88911   
     axis 0 0 0   XYZ
    dof rx ry rz
    limits (-20.0 45.0)
           (-30.0 30.0)
           (-30.0 30.0)
  end
  begin
     id 14 
     name lowerneck
     direction -0.0685355 0.990319 0.120714   
     length 1.91222   
     axis 0 0 0   XYZ
    dof rx ry rz
    limits (-20.0 45.0)
           (-30.0 30.0)
           (-30.0 30.0)
  end
  begin
     id 15 
     name upperneck
     direction 0.0886204 0.955665 -0.280805   
     length 1.92526   
     axis 0 0 0   XYZ
    dof rx ry rz
    limits (-20.0 45.0)
           (-30.0 30.0)
           (-30.0 30.0)
  end
  begin
     id 16
     name head
     direction 0.0233423 0.993502 -0.111393  
     length 1.96056  
     axis 0 0 0   XYZ
    dof rx ry rz
    limits (-20.0 45.0)
           (-30.0 30.0)
           (-30.0 30.0)
  end
  begin
     id 17 
     name lclavicle
     direction 0.941873 0.32922 0.0670041  
     length 3.31705  
     axis 0 0 0   XYZ
    dof ry rz
    limits (-20.0 10.0)
           (0.0 20.0)
  end
  begin
     id 18 
     name lhumerus
     direction 1 -4.4898e-011 3.38707e-028   
     length 5.29277   
     axis 180 -30 -90   XYZ
    dof rx ry rz
    limits (-60.0 90.0)
           (-90.0 90.0)
           (-90.0 90.0)
  end
  begin
     id 19
     name lradius
     direction 1 -4.48952e-011 1.63213e-028   
     length 2.85226   
     axis 180 -30 -90   XYZ
    dof rx
    limits (-10.0 170.0)
  end
  begin
     id 20
     name lwrist
     direction 1 -4.49001e-011 1.27856e-027   
     length 1.42613   
     axis -1.61767e-015 90 90   XYZ
    dof ry
    limits (-180.0 0.0)
 end
  begin
     id 21 
     name lhand
     direction 1 -4.48976e-011 2.55931e-027   
     length 0.602097   
     axis -1.63363e-015 90 90   XYZ
    dof rx rz
    limits (-90.0 90.0)
           (-45.0 45.0)
  end
  begin
     id 22 
     name lfingers
     direction 1 -4.48986e-011 5.11684e-027   
     length 0.485426   
     axis -3.26723e-015 90 90   XYZ
    dof rx
    limits (0.0 90.0)
  end
  begin
     id 23
     name lthumb
     direction 0.707107 -6.34915e-011 0.707107   
     length 0.696978   
     axis -90 45 -2.25915e-014   XYZ
    dof rx rz
    limits (-45.0 45.0)
           (-45.0 45.0)
  end
  begin
     id 24 
     name rclavicle
     direction -0.939974 0.327078 0.0973096   
     length 3.10337  
     axis 0 0 0   XYZ 
    dof ry rz
    limits (-10.0 20.0)
           (-20.0 0.0)
  end
  begin
     id 25 
     name rhumerus
     direction -1 -4.48975e-011 1.83745e-027  
     length 5.13304   
     axis 180 30 90   XYZ
    dof rx ry rz
    limits (-90.0 60.0)
           (-90.0 90.0)
           (-90.0 90.0)
  end
  begin
     id 26 
     name rradius
     direction -1 -4.48977e-011 7.1775e-029   
     length 2.74305   
     axis 180 30 90   XYZ
    dof rx
    limits (-10.0 170.0)
  end
  begin
     id 27 
     name rwrist
     direction -1 -4.48977e-011 1.27963e-027   
     length 1.37152   
     axis -1.61767e-015 -90 -90   XYZ
    dof ry
    limits (-180.0 0.0)
  end
  begin
     id 28
     name rhand
     direction -1 -4.4888e-011 2.56782e-027   
     length 0.767976   
     axis -1.63363e-015 -90 -90   XYZ
    dof rx rz
    limits (-90.0 90.0)
           (-45.0 45.0)
  end
  begin
     id 29
     name rfingers
     direction -1 -4.48947e-011 5.12384e-027   
     length 0.619162   
     axis -3.26723e-015 -90 -90   XYZ
    dof rx
    limits (0.0 90.0)
  end
  begin
     id 30
     name rthumb
     direction -0.707107 -6.34857e-011 0.707107   
     length 0.888997   
     axis -90 -45 2.25915e-014   XYZ
    dof rx rz
    limits (-45.0 45.0)
           (-45.0 45.0)
  end
:hierarchy
  begin
    root lhipjoint rhipjoint lowerback
    lhipjoint lfemur
    lfemur ltibia
    ltibia lfoot
    lfoot ltoes
    rhipjoint rfemur
    rfemur rtibia
    rtibia rfoot
    rfoot rtoes
    lowerback upperback
    upperback thorax
    thorax lowerneck lclavicle rclavicle
    lowerneck upperneck
    upperneck head
    lclavicle lhumerus
    lhumerus lradius
    lradius lwrist
    lwrist lhand lthumb
    lhand lfingers
    rclavicle rhumerus
    rhumerus rradius
    rradius rwrist
    rwrist rhand rthumb
    rhand rfingers
  end

#!OML:ASF F:\VICON\USERDATA\INSTALL\rory3\rory3.ASF
:FULLY-SPECIFIED
:DEGREES
343
root -0.071662 15.6956 0.45482 0.474263 0.643529 -2.86258
lowerback -0.244994 -0.364293 -0.972715
upperback -1.45717 -0.482942 0.737489
thorax -1.34018 -0.224912 1.30483
lowerneck -7.1694 -11.3775 -20.1665
upperneck 23.9639 -18.5157 20.5383
head 13.2437 -8.47609 8.50497
rclavicle -4.47266e-015 -2.78299e-015
rhumerus 40.9731 24.9952 -4.43519
rradius 140.388
rwrist 23.4197
rhand -25.7405 25.9486
rfingers 7.12502
rthumb 0.796383 -4.02961
lclavicle -4.47266e-015 -2.78299e-015
lhumerus 48.0525 -26.7886 3.05573
lradius 136.255
lwrist -11.7459
lhand -18.5036 8.05313
lfingers 7.12502
lthumb 7.78431 37.8898
rfemur -22.7176 1.19481 21.3059
rtibia 56.9228
rfoot -32.0648 -3.74994
rtoes -13.1657
lfemur -25.8694 -0.58767 -12.6818
ltibia 59.5272
lfoot -31.4833 -4.70167
ltoes -19.7561
344
root -0.0757598 15.6518 0.465335 0.275637 0.530349 -2.95858
lowerback -0.307089 -0.320652 -0.890163
upperback -1.35004 -0.424372 0.701142
thorax -1.19808 -0.198259 1.21987
lowerneck -7.182 -11.3846 -20.2703
upperneck 24.4526 -18.5671 20.4113
head 13.4607 -8.51605 8.49118
rclavicle 5.10628e-015 -3.18055e-015
rhumerus 40.9591 25.3826 -4.43609
rradius 140.337
rwrist 23.8567
rhand -26.1825 26.2476
rfingers 7.12502
rthumb 0.369508 -3.73179
lclavicle 5.10628e-015 -3.18055e-015
lhumerus 48.29 -27.1694 3.05565
lradius 136.168
lwrist -12.2896
lhand -18.4996 7.56724
lfingers 7.12502
lthumb 7.78816 37.4038
rfemur -22.8056 1.09153 21.4184
rtibia 57.587
rfoot -32.4308 -3.62744
rtoes -13.3933
lfemur -25.9246 -0.39113 -12.5443
ltibia 60.1732
lfoot -31.7178 -4.35724
ltoes -21.4218
345
root -0.0817872 15.619 0.480151 0.072548 0.407007 -2.99186
lowerback -0.430097 -0.273323 -0.89791
upperback -1.24295 -0.36131 0.611242
thorax -1.02161 -0.168737 1.13057
lowerneck -7.12854 -11.3582 -20.1935
upperneck 24.9182 -18.5969 20.2567
head 13.6234 -8.5368 8.44033
rclavicle 1.27968e-015 -5.56597e-015
rhumerus 40.7881 25.8603 -4.60449
rradius 140.093
rwrist 24.5864
rhand -25.3833 26.9525
rfingers 7.12502
rthumb 1.14136 -3.02421
lclavicle 1.27968e-015 -5.56597e-015
lhumerus 48.5672 -27.7066 2.89048
lradius 136.063
lwrist -13.0281
lhand -18.5735 7.34003
lfingers 7.12502
lthumb 7.71682 37.1792
rfemur -22.7812 1.06917 21.4756
rtibia 58.113
rfoot -32.7268 -3.61323
rtoes -13.8603
lfemur -25.8592 -0.199963 -12.4683
ltibia 60.6719
lfoot -31.922 -4.35284
ltoes -21.7414
346
root -0.0859352 15.5951 0.496084 -0.228783 0.290129 -2.85867
lowerback -0.495225 -0.241868 -1.08878
upperback -1.10616 -0.319678 0.514631
thorax -0.845655 -0.148477 1.1377
lowerneck -7.05589 -11.2983 -20.2081
upperneck 25.3964 -18.5848 20.1643
head 13.7984 -8.54477 8.4452
rclavicle -1.32937e-015 -7.15625e-015
rhumerus 40.5481 26.3244 -4.80013
rradius 139.401
rwrist 26.0672
rhand -25.1091 28.329
rfingers 7.12502
rthumb 1.40618 -1.64613
lclavicle -1.32937e-015 -7.15625e-015
lhumerus 48.7232 -28.3462 2.79279
lradius 136.088
lwrist -13.8699
lhand -18.3367 7.6096
lfingers 7.12502
lthumb 7.94537 37.4403
rfemur -22.5873 1.00991 21.3308
rtibia 58.5133
rfoot -32.9364 -3.46405
rtoes -14.4304
lfemur -25.574 -0.112581 -12.5958
ltibia 61.0264
lfoot -32.1278 -4.38307
ltoes -21.9156
347
root -0.0905534 15.573 0.510479 -0.515538 0.158209 -2.84742
lowerback -0.58145 -0.200038 -1.16018
upperback -0.979413 -0.263094 0.445927
thorax -0.669133 -0.121783 1.10658
lowerneck -7.00277 -11.2448 -20.1937
upperneck 25.9129 -18.5845 20.0491
head 13.9931 -8.55602 8.43466
rclavicle 6.53505e-015 2.78299e-015
rhumerus 40.3536 26.8083 -4.92808
rradius 139.286
rwrist 26.2739
rhand -25.2321 28.5134
rfingers 7.12502
rthumb 1.28741 -1.46249
lclavicle 6.53505e-015 2.78299e-015
lhumerus 48.914 -28.9771 2.68578
lradius 136.074
lwrist -14.5569
lhand -18.1506 7.66377
lfingers 7.12502
lthumb 8.12495 37.4876
rfemur -22.3634 1.02105 21.327
rtibia 58.8
rfoot -33.0414 -3.31175
rtoes -14.5115
lfemur -25.2775 -0.0278616 -12.5768
ltibia 61.3029
lfoot -32.2963 -4.38689
ltoes -22.2315
